<svg width="227" height="76" viewBox="0 0 227 76" fill="none" xmlns="http://www.w3.org/2000/svg">
<path d="M0.840909 10.9602H18.6534V59H30.8125V10.9602H48.625V0.81818H0.840909V10.9602ZM62.7727 59.8239C69.2216 59.8239 73.3977 57.0114 75.5284 52.9489H75.8693V59H87.3466V29.5682C87.3466 19.1705 78.5398 14.7955 68.8239 14.7955C58.3693 14.7955 51.4943 19.7955 49.8182 27.75L61.0114 28.6591C61.8352 25.7614 64.4205 23.6307 68.767 23.6307C72.8864 23.6307 75.2443 25.7045 75.2443 29.2841V29.4545C75.2443 32.267 72.2614 32.6364 64.6761 33.375C56.0398 34.1705 48.2841 37.0682 48.2841 46.8125C48.2841 55.4489 54.4489 59.8239 62.7727 59.8239ZM66.2386 51.4716C62.517 51.4716 59.8466 49.7386 59.8466 46.4148C59.8466 43.0057 62.6591 41.3295 66.9205 40.733C69.5625 40.3636 73.8807 39.7386 75.3295 38.7727V43.4034C75.3295 47.9773 71.5511 51.4716 66.2386 51.4716ZM108.838 0.81818H96.7358V59H108.838V0.81818ZM118.533 59H130.635V45.1364L133.902 41.4148L145.805 59H159.982L142.964 34.2557L159.158 15.3636H145.266L131.288 31.9261H130.635V0.81818H118.533V59ZM173.27 75.3636C182.276 75.3636 187.048 70.7614 189.52 63.7159L206.48 15.3636H193.668L184.548 47.4091H184.094L175.06 15.3636H162.332L177.986 60.25L177.276 62.0966C175.685 66.1875 172.645 66.3864 168.384 65.0795L165.656 74.1136C167.389 74.8523 170.202 75.3636 173.27 75.3636Z" fill="white"/>
<path d="M0.840909 10.9602H18.6534V59H30.8125V10.9602H48.625V0.81818H0.840909V10.9602ZM62.7727 59.8239C69.2216 59.8239 73.3977 57.0114 75.5284 52.9489H75.8693V59H87.3466V29.5682C87.3466 19.1705 78.5398 14.7955 68.8239 14.7955C58.3693 14.7955 51.4943 19.7955 49.8182 27.75L61.0114 28.6591C61.8352 25.7614 64.4205 23.6307 68.767 23.6307C72.8864 23.6307 75.2443 25.7045 75.2443 29.2841V29.4545C75.2443 32.267 72.2614 32.6364 64.6761 33.375C56.0398 34.1705 48.2841 37.0682 48.2841 46.8125C48.2841 55.4489 54.4489 59.8239 62.7727 59.8239ZM66.2386 51.4716C62.517 51.4716 59.8466 49.7386 59.8466 46.4148C59.8466 43.0057 62.6591 41.3295 66.9205 40.733C69.5625 40.3636 73.8807 39.7386 75.3295 38.7727V43.4034C75.3295 47.9773 71.5511 51.4716 66.2386 51.4716ZM108.838 0.81818H96.7358V59H108.838V0.81818ZM118.533 59H130.635V45.1364L133.902 41.4148L145.805 59H159.982L142.964 34.2557L159.158 15.3636H145.266L131.288 31.9261H130.635V0.81818H118.533V59ZM173.27 75.3636C182.276 75.3636 187.048 70.7614 189.52 63.7159L206.48 15.3636H193.668L184.548 47.4091H184.094L175.06 15.3636H162.332L177.986 60.25L177.276 62.0966C175.685 66.1875 172.645 66.3864 168.384 65.0795L165.656 74.1136C167.389 74.8523 170.202 75.3636 173.27 75.3636Z" fill="url(#paint0_linear_4_2)"/>
<path d="M219.747 59.7386C223.384 59.7386 226.537 56.6989 226.565 52.9205C226.537 49.1989 223.384 46.1591 219.747 46.1591C215.997 46.1591 212.901 49.1989 212.929 52.9205C212.901 56.6989 215.997 59.7386 219.747 59.7386Z" fill="#243443"/>
<defs>
<linearGradient id="paint0_linear_4_2" x1="115" y1="-19" x2="115" y2="78" gradientUnits="userSpaceOnUse">
<stop stop-color="white"/>
<stop offset="1" stop-color="white" stop-opacity="0"/>
</linearGradient>
</defs>
</svg>
