<svg width="170" height="57" viewBox="0 0 170 57" fill="none" xmlns="http://www.w3.org/2000/svg">
<path d="M0.130682 7.97017H13.4901V44H22.6094V7.97017H35.9688V0.363635H0.130682V7.97017ZM46.5795 44.6179C51.4162 44.6179 54.5483 42.5085 56.1463 39.4616H56.402V44H65.0099V21.9261C65.0099 14.1278 58.4048 10.8466 51.1179 10.8466C43.277 10.8466 38.1207 14.5966 36.8636 20.5625L45.2585 21.2443C45.8764 19.071 47.8153 17.473 51.0753 17.473C54.1648 17.473 55.9332 19.0284 55.9332 21.7131V21.8409C55.9332 23.9503 53.696 24.2273 48.0071 24.7812C41.5298 25.3778 35.7131 27.5511 35.7131 34.8594C35.7131 41.3366 40.3366 44.6179 46.5795 44.6179ZM49.179 38.3537C46.3878 38.3537 44.3849 37.054 44.3849 34.5611C44.3849 32.0043 46.4943 30.7472 49.6903 30.2997C51.6719 30.0227 54.9105 29.554 55.9972 28.8295V32.3026C55.9972 35.733 53.1634 38.3537 49.179 38.3537ZM81.1286 0.363635H72.0518V44H81.1286V0.363635ZM88.3995 44H97.4762V33.6023L99.9265 30.8111L108.854 44H119.486L106.723 25.4418L118.868 11.2727H108.449L97.9663 23.6946H97.4762V0.363635H88.3995V44ZM129.452 56.2727C136.207 56.2727 139.786 52.821 141.64 47.5369L154.36 11.2727H144.751L137.911 35.3068H137.57L130.795 11.2727H121.249L132.989 44.9375L132.457 46.3224C131.263 49.3906 128.984 49.5398 125.788 48.5597L123.742 55.3352C125.042 55.8892 127.151 56.2727 129.452 56.2727Z" fill="#243443"/>
<path d="M164.31 44.554C167.038 44.554 169.403 42.2741 169.424 39.4403C169.403 36.6491 167.038 34.3693 164.31 34.3693C161.498 34.3693 159.175 36.6491 159.197 39.4403C159.175 42.2741 161.498 44.554 164.31 44.554Z" fill="#377DFF"/>
</svg>
